<?xml version="1.0" standalone="no"?>
<!DOCTYPE svg PUBLIC "-//W3C//DTD SVG 20010904//EN"
 "http://www.w3.org/TR/2001/REC-SVG-20010904/DTD/svg10.dtd">
<svg version="1.0" xmlns="http://www.w3.org/2000/svg"
 width="16.000000pt" height="16.000000pt" viewBox="0 0 16.000000 16.000000"
 preserveAspectRatio="xMidYMid meet">
<metadata>
Created by potrace 1.11, written by Peter Selinger 2001-2013
</metadata>
<g transform="translate(0.000000,16.000000) scale(0.001483,-0.001483)"
fill="#000000" stroke="none">
<path d="M5670 10051 l0 -229 28 -6 c15 -2 68 -8 117 -11 146 -11 379 -44 528
-75 129 -28 316 -75 323 -83 2 -1 -17 -70 -41 -152 -25 -81 -45 -153 -45 -159
0 -6 44 -26 98 -44 554 -189 1014 -453 1466 -842 l119 -102 119 118 120 119
80 -85 c219 -232 357 -400 474 -575 71 -107 77 -114 97 -103 83 43 387 221
387 225 0 4 -34 57 -75 119 -361 542 -958 1089 -1615 1481 -452 269 -1030 467
-1669 573 -164 27 -435 60 -491 60 -20 0 -20 -6 -20 -229z"/>
<path d="M5045 10263 c-16 -2 -88 -10 -160 -19 -484 -58 -980 -185 -1405 -358
-685 -281 -1464 -883 -1955 -1511 -76 -97 -239 -335 -233 -340 2 -2 302 -176
400 -232 4 -2 43 50 87 115 123 184 201 278 489 592 l59 65 89 -82 c49 -45
104 -97 123 -116 l33 -35 132 112 c457 388 881 632 1431 821 61 21 113 41 116
44 3 3 -15 76 -41 161 -31 104 -43 157 -36 162 20 12 300 78 436 102 74 14
209 32 300 41 91 9 184 18 208 21 l42 5 0 230 0 229 -42 -1 c-24 -1 -56 -4
-73 -6z"/>
<path d="M5201 8730 c-46 -5 -130 -17 -187 -26 -87 -14 -104 -20 -104 -35 0
-14 198 -1326 215 -1424 l5 -30 -98 -19 c-396 -75 -807 -320 -1065 -634 -15
-19 -31 -32 -37 -30 -5 2 -266 206 -580 453 -314 248 -576 451 -583 452 -15 3
-151 -168 -237 -297 -72 -107 -184 -333 -228 -461 l-31 -87 687 -267 c378
-147 690 -271 694 -274 4 -4 -8 -54 -27 -111 -122 -378 -122 -781 0 -1158 l33
-103 -31 -13 c-18 -7 -330 -129 -694 -270 l-661 -258 23 -67 c51 -147 138
-332 210 -446 41 -64 187 -260 232 -311 l28 -31 480 379 c264 208 526 415 583
460 l104 81 45 -54 c265 -312 644 -537 1046 -620 l107 -22 -5 -31 c-3 -17 -48
-328 -100 -691 -53 -363 -98 -674 -101 -691 -6 -31 -5 -32 45 -43 251 -54 640
-54 889 0 l48 10 -110 719 c-61 396 -108 721 -106 724 3 2 59 16 124 31 151
34 261 72 406 141 218 104 456 286 599 457 35 43 65 77 67 77 1 0 262 -205
580 -455 317 -250 581 -452 586 -449 20 13 174 213 235 305 35 54 90 153 123
220 65 136 134 316 122 322 -4 3 -311 123 -682 267 -371 145 -679 266 -684
271 -5 5 -3 26 7 51 135 366 139 806 11 1206 -20 62 -35 114 -33 116 2 2 315
124 694 271 380 148 691 270 693 271 2 1 -13 46 -34 100 -46 125 -128 299
-184 389 -47 77 -188 269 -241 328 l-34 37 -583 -460 c-321 -253 -586 -460
-589 -460 -3 0 -50 47 -105 105 -111 117 -210 200 -343 288 -182 120 -443 226
-650 264 -52 10 -95 21 -95 25 0 3 47 332 105 729 58 398 102 726 97 730 -4 5
-70 17 -147 29 -160 23 -411 33 -534 20z"/>
<path d="M9593 7473 l-201 -115 50 -107 c82 -175 152 -348 201 -496 57 -173
99 -324 94 -338 -2 -6 -73 -27 -158 -47 -134 -32 -154 -39 -153 -56 1 -10 15
-100 32 -199 41 -236 61 -413 68 -615 11 -268 -24 -663 -85 -976 l-27 -141
155 -43 c86 -23 159 -45 162 -48 8 -8 -99 -355 -153 -502 -43 -115 -115 -278
-163 -369 -19 -36 -32 -67 -28 -69 5 -1 96 -54 203 -116 178 -105 196 -113
209 -98 22 28 126 249 179 382 168 423 279 901 334 1440 20 199 17 753 -5 925
-57 433 -174 882 -342 1310 -50 127 -160 382 -169 392 -1 1 -92 -50 -203 -114z"/>
<path d="M967 7447 c-223 -495 -380 -1032 -448 -1527 -27 -199 -37 -629 -20
-863 41 -552 157 -1087 338 -1546 61 -156 180 -401 195 -401 16 0 398 223 398
233 0 4 -16 39 -36 78 -52 105 -111 240 -156 359 -40 107 -161 491 -156 495 2
2 74 22 162 46 l158 43 -5 30 c-3 17 -17 96 -31 176 -51 288 -69 483 -70 780
-1 168 4 320 12 390 16 141 57 399 78 498 9 40 15 74 13 76 -2 1 -71 18 -152
37 -82 19 -154 37 -160 41 -34 21 165 594 303 868 l39 78 -196 114 c-109 62
-200 114 -204 116 -3 1 -31 -53 -62 -121z"/>
<path d="M1505 2808 c-104 -60 -196 -113 -204 -117 -11 -7 -6 -22 29 -77 435
-690 1321 -1432 2105 -1764 359 -152 778 -271 1220 -344 168 -28 398 -56 463
-56 l42 0 0 229 0 229 -77 6 c-155 14 -350 38 -463 57 -124 21 -441 96 -452
107 -4 4 13 74 38 156 25 81 43 154 40 161 -2 7 -17 16 -33 19 -58 15 -378
139 -504 196 -330 149 -662 363 -977 629 -63 53 -124 105 -137 115 l-24 19
-116 -109 c-64 -60 -120 -110 -124 -112 -10 -3 -203 201 -316 333 -96 112
-168 208 -252 333 -35 53 -65 97 -66 98 -1 1 -87 -47 -192 -108z"/>
<path d="M9076 2836 c-104 -167 -282 -387 -485 -598 l-100 -103 -118 118 -119
118 -60 -53 c-248 -221 -574 -453 -835 -595 -167 -91 -372 -182 -599 -264
-101 -37 -186 -71 -187 -76 -2 -4 17 -75 42 -158 24 -82 41 -153 37 -156 -22
-19 -372 -97 -552 -123 -95 -14 -393 -46 -426 -46 -11 0 -14 -43 -14 -230 l0
-230 37 0 c119 0 555 65 803 121 574 127 1037 314 1485 599 511 325 973 738
1313 1172 82 106 232 324 232 338 0 4 -78 52 -172 106 -95 54 -187 106 -204
116 l-32 19 -46 -75z"/>
</g>
</svg>
