<?xml version="1.0" encoding="utf-8"?>
<!-- Generator: Adobe Illustrator 21.1.0, SVG Export Plug-In . SVG Version: 6.00 Build 0)  -->
<svg version="1.1" id="Layer_1" xmlns="http://www.w3.org/2000/svg" xmlns:xlink="http://www.w3.org/1999/xlink" x="0px" y="0px"
	 viewBox="0 0 126.3 126.3" style="enable-background:new 0 0 126.3 126.3;" xml:space="preserve">
<style type="text/css">
	.st0{fill:#4661AA;}
	.st1{fill:none;}
	.st2{fill:#FFFFFF;}
	.st3{fill:none;stroke:#FFFFFF;stroke-width:0.5;stroke-miterlimit:10;}
</style>
<g>
	<g>
		<path class="st0" d="M153.7,100.8c0,18.6-17.6,33.7-39.3,33.7H14c-21.7,0-39.3-15.1-39.3-33.7V25.7C-25.3,7.1-7.7-8,14-8h100.4
			c21.7,0,39.3,15.1,39.3,33.7V100.8z"/>
	</g>
	<g>
		<path class="st1" d="M63.2,2.3C29.6,2.3,2.3,29.6,2.3,63.2c0,33.6,27.2,60.8,60.8,60.8c33.6,0,60.8-27.2,60.8-60.8
			C124,29.6,96.7,2.3,63.2,2.3z M94.9,107.3L94.9,107.3L94.9,107.3c-8.9,6.4-19.9,10.3-31.8,10.3c-3.5,0-6.9-0.4-10.2-1l0,0l0,0
			c-5.1-1-10-2.7-14.5-5l0,0l0,0c-5.6-2.9-10.7-6.7-14.9-11.2l0,0l0,0c-1.7-1.8-3.3-3.7-4.7-5.8l0,0l0,0C14,87.9,10.7,80,9.4,71.4
			l-0.1,0l0.1,0C9,68.7,8.7,66,8.7,63.2c0-11.8,3.8-22.6,10.1-31.5l0,0l0,0c3.3-4.7,7.4-8.8,12.1-12.2l0,0l0,0
			c4.4-3.3,9.4-5.9,14.7-7.7l0,0l0,0C51.1,9.8,57,8.7,63.2,8.7c18.3,0,34.4,9.1,44.3,22.9l0,0l0,0c3.5,4.9,6.2,10.5,8,16.4l0,0l0,0
			c1.4,4.8,2.2,9.9,2.2,15.1c0,12.3-4.1,23.5-10.9,32.6l0.1,0l-0.1,0C103.3,100.2,99.4,104.1,94.9,107.3z"/>
	</g>
	<g>
		<path class="st2" d="M63.2,0C28.3,0,0,28.3,0,63.2c0,34.9,28.3,63.2,63.2,63.2c34.9,0,63.2-28.3,63.2-63.2C126.3,28.3,98,0,63.2,0
			z M63.2,124C29.6,124,2.3,96.7,2.3,63.2c0-33.6,27.2-60.8,60.8-60.8c33.6,0,60.8,27.2,60.8,60.8C124,96.7,96.7,124,63.2,124z"/>
	</g>
	<g>
		<path class="st2" d="M50.9,28.7l-6.1-17.5l0.7-0.2c5.8-2,11.8-3,17.8-3h0.7v18.5h-0.7c-3.9,0-7.8,0.6-11.6,1.9L50.9,28.7z
			 M46.5,12.1l5.2,14.8c3.5-1.1,7.1-1.7,10.7-1.8V9.4C57.1,9.5,51.7,10.4,46.5,12.1z"/>
	</g>
	<g>
		<path class="st2" d="M26.5,63.2h-1.4c0-3.6,0.5-7.3,1.6-10.8l0.7,0.2l0.2-0.7l-0.2,0.7l0.2-0.7l0.7,0.2l-0.2,0.7
			C27,56.2,26.5,59.7,26.5,63.2z"/>
	</g>
	<g>
		<path class="st2" d="M8.8,72.2l-0.1-0.7C8.2,68.4,8,65.7,8,63.2c0-11.3,3.4-22.1,9.9-31.4l0,0l0.4-0.5c0,0,0,0,0,0l0.4-0.6l0,0
			c3.3-4.5,7.3-8.5,11.8-11.8l0.6-0.4l10.8,15l-0.6,0.4c-3.1,2.3-6.1,5.4-8.4,8.7l-0.6-0.4l-0.4,0.6L19,32.6
			c-6.3,9-9.6,19.6-9.6,30.5c0,2.3,0.2,4.7,0.6,7.5l16.2-2.5l0.2,1.4L8.8,72.2z M19.8,31.5l12.4,9.7c2.2-3,4.9-5.8,7.7-8l-9.2-12.8
			C26.6,23.5,22.9,27.3,19.8,31.5z"/>
	</g>
	<g>
		<path class="st2" d="M40.7,34.3l-10.8-15l0.6-0.4c4.6-3.4,9.6-6,14.9-7.8l0.7-0.2l6.1,17.5l-0.7,0.2c-3.6,1.2-7.1,3-10.2,5.4
			L40.7,34.3z M31.9,19.5L41,32.3c2.9-2.1,6-3.7,9.4-4.9l-5.2-14.8C40.5,14.2,36,16.6,31.9,19.5z"/>
	</g>
	<g>
		<path class="st2" d="M98.4,53.3l-0.2-0.7c-1.1-3.7-2.8-7.3-5.1-10.5l-0.4-0.6l14.9-11l0.4,0.6c3.6,5.1,6.3,10.7,8.1,16.6l0.2,0.7
			L98.4,53.3z M94.7,41.9c2,3,3.6,6.3,4.7,9.7l15.2-4.1c-1.6-5.3-4-10.3-7.2-14.9L94.7,41.9z"/>
	</g>
	<g>
		<path class="st2" d="M118.3,63.9H99.8v-0.7c0-3.5-0.5-7.1-1.5-10.5L98,52l17.9-4.8l0.2,0.7c1.5,5.1,2.2,10.2,2.2,15.3V63.9z
			 M101.2,62.5h15.7c-0.1-4.5-0.7-9.1-2-13.6L99.8,53C100.6,56.1,101.1,59.3,101.2,62.5z"/>
	</g>
	<g>
		<path class="st2" d="M63.2,118.3c-3.4,0-6.8-0.3-10.3-1l-0.7-0.1l3-18.3l0.7,0.1c9.9,2,20-0.2,28.2-5.9l0.6-0.4l11.2,14.7
			l-0.6,0.4C85.9,114.7,74.7,118.3,63.2,118.3z M53.8,116c3.2,0.6,6.3,0.9,9.4,0.9c11.1,0,21.7-3.4,30.8-9.7l-9.5-12.5
			c-8.2,5.5-18.2,7.7-28,5.9L53.8,116z"/>
	</g>
	<g>
		<path class="st2" d="M94.8,108.3L83.5,93.6l0.6-0.4c3.1-2.2,5.9-4.8,8.2-7.9l0.4-0.6l14.9,10.9l-0.4,0.6
			c-3.4,4.5-7.4,8.4-11.9,11.7L94.8,108.3z M85.5,93.9l9.5,12.5c4-2.9,7.5-6.4,10.6-10.4L93,86.7C90.8,89.4,88.3,91.8,85.5,93.9z"/>
	</g>
	<g>
		<path class="st2" d="M106.2,96.4L91.9,85.8l0.4-0.6c2.3-3,4.1-6.3,5.3-9.8l0,0c1.4-4,2.1-8.1,2.1-12.3v-0.7h17.8v1.4h-16.4
			c-0.1,4.1-0.8,8.1-2.2,12.1c-1.2,3.4-2.9,6.7-5.1,9.6l13.2,9.7L106.2,96.4z"/>
	</g>
	<g>
		<path class="st2" d="M18.7,95.7l-0.4-0.6c-5-7-8.3-15.1-9.6-23.6l-0.1-0.7L26.9,68l0.1,0.7c0.8,5.5,3,10.9,6.2,15.4l0.4,0.6
			L18.7,95.7z M10.2,72c1.3,7.8,4.3,15.3,8.8,21.7l12.6-9.4c-3-4.4-5-9.5-5.9-14.8L10.2,72z"/>
	</g>
	<g>
		<path class="st2" d="M53.5,117.4l-0.7-0.1c-4.9-0.9-9.6-2.5-14.1-4.7l0,0l-0.6-0.3c0,0,0,0-0.1,0l-0.6-0.3l0,0
			c-5.4-2.8-10.3-6.5-14.5-11l-0.5-0.5l13.1-13.2l0.5,0.5c5.3,5.8,12.2,9.7,19.8,11.2l0.7,0.1L53.5,117.4z M39.5,111.4
			c4.1,2,8.5,3.5,12.9,4.4l2.6-15.5c-2.6-0.6-5.1-1.4-7.5-2.5L39.5,111.4z M24.6,100.5c4,4.1,8.6,7.6,13.7,10.3l8-13.5
			c-3.9-2-7.5-4.6-10.6-7.9L24.6,100.5z"/>
	</g>
	<g>
		<path class="st2" d="M72.3,36.5l-0.7-0.2C68.9,35.5,66,35,63.2,35h-0.7v-9.9h0.7c3.8,0,7.6,0.6,11.3,1.7l0.7,0.2L72.3,36.5z
			 M63.9,33.6c2.5,0.1,5,0.4,7.5,1.1l2-6.8c-3.1-0.9-6.3-1.4-9.5-1.4V33.6z"/>
	</g>
	<g>
		<path class="st2" d="M45.7,41.2l-5.8-8l0.6-0.4c3.3-2.4,6.8-4.3,10.6-5.6l0.7-0.2l3.3,9.3l-0.7,0.2c-2.9,1-5.6,2.4-8.1,4.3
			L45.7,41.2z M41.8,33.4l4.1,5.8c2.2-1.6,4.7-2.9,7.2-3.8l-2.3-6.7C47.7,29.8,44.6,31.4,41.8,33.4z"/>
	</g>
	<g>
		<path class="st2" d="M35,63.9h-9.9v-0.7c0-3.6,0.5-7.3,1.6-10.8l0.2-0.7l9.4,3.3l-0.2,0.6c-0.7,2.5-1.1,5.1-1.1,7.6V63.9z
			 M26.5,62.5h7.1c0.1-2.2,0.4-4.4,0.9-6.6l-6.7-2.4C27,56.4,26.6,59.4,26.5,62.5z"/>
	</g>
	<g>
		<path class="st2" d="M90.2,55.5L90,54.9c-0.8-2.7-2.1-5.3-3.7-7.7l-0.4-0.6l8-5.9l0.4,0.6c2.4,3.4,4.1,7,5.3,10.9l0.2,0.7
			L90.2,55.5z M87.8,47c1.4,2.1,2.5,4.4,3.3,6.9L98,52c-1-3.3-2.5-6.4-4.5-9.2L87.8,47z"/>
	</g>
	<g>
		<path class="st2" d="M79.9,40.6l-0.6-0.4c-2.4-1.7-5-3-7.8-3.9l-0.7-0.2l2.8-9.5l0.7,0.2c3.7,1.2,7.3,2.9,10.6,5.3l0.6,0.4
			L79.9,40.6z M72.7,35.2c2.4,0.8,4.7,2,6.9,3.5l4.1-5.8c-2.8-1.9-5.8-3.4-9-4.4L72.7,35.2z"/>
	</g>
	<g>
		<path class="st2" d="M86.7,47.8l-0.4-0.6c-1.9-2.7-4.2-5.1-6.9-7l-0.6-0.4l5.7-8.1l0.6,0.4c3.6,2.5,6.7,5.7,9.3,9.3l0.4,0.6
			L86.7,47.8z M80.7,39.5c2.4,1.8,4.5,3.9,6.3,6.3l5.7-4.2c-2.2-3-4.9-5.7-7.9-8L80.7,39.5z"/>
	</g>
	<g>
		<path class="st2" d="M53.7,36.7l-3.3-9.3l0.7-0.2c3.9-1.3,8-2,12.1-2h0.7V35h-0.7c-3,0-6,0.5-8.8,1.4L53.7,36.7z M52.2,28.2
			l2.3,6.7c2.6-0.8,5.3-1.2,7.9-1.3v-7.1C59,26.6,55.5,27.2,52.2,28.2z"/>
	</g>
	<g>
		<path class="st2" d="M98.7,76.6l-9.3-3.4l0.2-0.7c1.1-3.1,1.6-6.2,1.6-9.3v-0.7h9.9v0.7c0,4.3-0.8,8.6-2.2,12.8L98.7,76.6z
			 M91.2,72.3l6.7,2.5c1.2-3.6,1.8-7.2,1.9-10.9h-7.1C92.6,66.7,92.1,69.5,91.2,72.3z"/>
	</g>
	<g>
		<path class="st2" d="M84.4,94.7l-6-7.9l0.6-0.4c2.4-1.7,4.6-3.7,6.5-6.2l0.4-0.5l8,5.9l-0.4,0.6c-2.4,3.2-5.3,5.9-8.5,8.2
			L84.4,94.7z M80.4,87.1l4.3,5.6c2.7-2,5.1-4.3,7.2-7l-5.7-4.2C84.4,83.7,82.5,85.6,80.4,87.1z"/>
	</g>
	<g>
		<path class="st2" d="M93,86.7l-8-5.9l0.4-0.6c1.8-2.3,3.2-4.9,4.2-7.7l0.2-0.7l9.3,3.4l-0.2,0.7c-1.3,3.7-3.2,7.1-5.5,10.2
			L93,86.7z M87,80.5l5.7,4.2c1.9-2.6,3.5-5.5,4.7-8.6l-6.7-2.5C89.8,76.1,88.5,78.4,87,80.5z"/>
	</g>
	<g>
		<path class="st2" d="M101.2,63.9h-9.9v-0.7c0-2.8-0.4-5.6-1.2-8.3l-0.2-0.7l9.6-2.6l0.2,0.7c1.1,3.6,1.6,7.2,1.6,10.9V63.9z
			 M92.7,62.5h7.1c-0.1-3.1-0.5-6.1-1.3-9.1l-6.8,1.8C92.2,57.5,92.6,60,92.7,62.5z"/>
	</g>
	<g>
		<path class="st2" d="M32.4,85.5L32,84.9c-3.3-4.7-5.5-10.3-6.4-16l-0.1-0.7l9.8-1.5l0.1,0.7c0.6,4.3,2.2,8.2,4.6,11.7l0.4,0.6
			L32.4,85.5z M27.1,69.4c0.9,5.1,2.8,9.9,5.6,14.1l5.7-4.2c-2.2-3.3-3.6-7.1-4.3-11L27.1,69.4z"/>
	</g>
	<g>
		<rect x="25.8" y="62.5" class="st2" width="8.5" height="1.4"/>
	</g>
	<g>
		
			<rect x="26.3" y="67.4" transform="matrix(0.9881 -0.1537 0.1537 0.9881 -10.1072 5.4958)" class="st2" width="8.5" height="1.4"/>
	</g>
	<g>
		
			<rect x="31.7" y="81.3" transform="matrix(0.8035 -0.5954 0.5954 0.8035 -41.7401 37.5405)" class="st2" width="8.5" height="1.4"/>
	</g>
	<g>
		<path class="st2" d="M56.4,100.6l-0.7-0.1c-7.9-1.6-15-5.6-20.5-11.7l-0.5-0.5l6.4-6.5l1,1l-5.5,5.5c5.1,5.4,11.5,9,18.6,10.6
			l1.3-7.7l1.4,0.2L56.4,100.6z"/>
	</g>
	<g>
		<path class="st2" d="M63.2,101.2c-2.5,0-5-0.3-7.5-0.7l-0.7-0.1l1.6-9.8l0.7,0.1c7.6,1.6,15.4,0,21.6-4.3l0.5-0.4l6,7.9l-0.6,0.4
			C78.5,98.8,71,101.2,63.2,101.2z M56.6,99.2c9.4,1.7,19.1-0.3,26.9-5.6l-4.3-5.6c-6.3,4.1-13.9,5.6-21.4,4.2L56.6,99.2z"/>
	</g>
	<g>
		<path class="st2" d="M79.2,87.9l-6.3-8.3l1.1-0.9l5.5,7.2c2-1.5,3.9-3.2,5.5-5.2l-6.7-4.9c0,0,0,0,0,0l-0.5-0.4l0,0L77.3,75
			c1.5-1.7,2.6-3.7,3.3-5.8l0.2-0.7l10.4,3.9L91,73c-1,2.7-2.3,5.2-4,7.5l0,0L86.6,81c0,0,0,0,0,0l0,0c0,0,0,0,0,0l-0.4,0.5l0,0
			c-1.9,2.3-4,4.3-6.4,6L79.2,87.9z M79.2,74.8l6.7,4.9c1.5-2,2.7-4.2,3.5-6.5l-7.8-2.9C81,71.9,80.2,73.4,79.2,74.8z"/>
	</g>
	<g>
		<path class="st2" d="M63.2,92.7c-2,0-4.1-0.2-6.1-0.6l-0.7-0.1l1.8-11l0.7,0.2c5.1,1.2,10,0.2,14.1-2.4l0.5-0.3l6.8,8.8l-0.6,0.4
			C74.8,90.9,69.1,92.7,63.2,92.7z M58,90.8c7.1,1.3,14.4-0.1,20.3-4l-5.1-6.6c-4.1,2.5-8.9,3.4-13.9,2.4L58,90.8z"/>
	</g>
	<g>
		<path class="st2" d="M44.7,63.9H33.6v-0.7c0-2.4,0.3-4.9,0.9-7.3l0,0l0.4-1.4l0,0c1.7-5.7,5.2-10.8,9.9-14.5l0,0l0.5-0.4
			c0,0,0,0,0,0l0.6-0.4l0,0c2.2-1.6,4.7-2.9,7.2-3.8l0,0l0.7-0.2l0,0l0.7-0.2l0,0c2.8-0.9,5.7-1.3,8.6-1.3h0.7v11.1h-0.7
			c-1.9,0-3.8,0.3-5.6,0.9c-2,0.7-3.9,1.7-5.6,3c-3.3,2.6-5.6,6.2-6.6,10.2c-0.3,1.4-0.5,2.9-0.5,4.4V63.9z M35,62.5h8.3
			c0-1.1,0.2-2.3,0.4-3.4l-7.8-2.8C35.4,58.4,35.1,60.4,35,62.5z M36.3,55l7.8,2.7c1.1-3.8,3.3-7.2,6.4-9.8l-4.8-6.7
			C41.2,44.7,37.9,49.6,36.3,55z M46.8,40.3l4.8,6.7c1.5-1.1,3.1-1.9,4.8-2.5l-2.7-7.8C51.2,37.6,48.9,38.8,46.8,40.3z M55,36.3
			l2.7,7.8c1.5-0.4,3.1-0.7,4.7-0.7V35C59.9,35.1,57.4,35.5,55,36.3z"/>
	</g>
	<g>
		<path class="st2" d="M57.8,92.2L57,92c-6.2-1.3-12-4.7-16.2-9.5l1.1-0.9c3.8,4.4,9,7.6,14.7,8.9l1.4-8.2
			c-8.4-2.3-14.3-9.7-14.6-18.4h-9v-1.4h10.4v0.7c0,8.6,5.8,16,14.2,17.9l0.6,0.1L57.8,92.2z"/>
	</g>
	<g>
		<path class="st2" d="M39.2,80.5l-0.4-0.6c-2.5-3.6-4.2-7.9-4.8-12.3l-0.1-0.7l10-1.6l0.2,1.4l-8.6,1.3c0.7,3.8,2,7.2,4.1,10.4
			l7.2-5.3l0.8,1.1L39.2,80.5z"/>
	</g>
	<g>
		<path class="st2" d="M80.9,58.1l-0.2-0.6c-1.2-3.7-3.6-7-6.8-9.3c-1.5-1.1-3.2-1.9-5-2.5c-1.8-0.6-3.7-0.9-5.6-0.9h-0.7V33.6h0.7
			c2.8,0,5.5,0.4,8.2,1.1l0,0L72,35c0,0,0,0,0,0l0.7,0.2l0,0c2.4,0.8,4.7,2,6.9,3.5l0,0l0.6,0.4c0,0,0,0,0,0l0.6,0.4l0,0
			c2.4,1.8,4.5,3.9,6.3,6.3l0,0l0.4,0.6c0,0,0,0,0,0l0.4,0.6l0,0c1.5,2.3,2.7,4.9,3.5,7.5l0.2,0.7L80.9,58.1z M80,52.7
			c0.7,1.1,1.3,2.4,1.8,3.6l8-2.2c-0.8-2.2-1.8-4.4-3.1-6.4L80,52.7z M75.2,47.4c1.5,1.2,2.9,2.6,4,4.2l6.7-4.9
			c-1.7-2.3-3.7-4.3-6-6L75.2,47.4z M69.9,44.5c1.5,0.5,2.9,1.2,4.2,2.1l4.7-6.8c-2.1-1.4-4.3-2.5-6.5-3.3L69.9,44.5z M63.9,43.3
			c1.6,0.1,3.2,0.3,4.7,0.7l2.4-7.9c-2.3-0.7-4.7-1-7.1-1.1V43.3z"/>
	</g>
	<g>
		<path class="st2" d="M90.7,73.6l-10.4-3.8l0.2-0.6c0.7-2,1-4,1-6v-0.7h11.1v0.7c0,3.3-0.6,6.6-1.7,9.8L90.7,73.6z M82.1,68.9
			l7.8,2.9c0.9-2.6,1.3-5.3,1.4-8H83C82.9,65.6,82.6,67.3,82.1,68.9z"/>
	</g>
	<g>
		<path class="st2" d="M92.7,63.9H81.6v-0.7c0-1.9-0.3-3.9-0.9-5.7l-0.2-0.7l10.7-2.9l0.2,0.6c0.9,2.8,1.3,5.7,1.3,8.7V63.9z
			 M83,62.5h8.3c-0.1-2.3-0.4-4.7-1-6.9l-8,2.2C82.7,59.3,82.9,60.8,83,62.5z"/>
	</g>
	<g>
		<path class="st2" d="M83,63.9h-6.8v-0.7c0-1.5-0.2-2.9-0.7-4.3c-1.8-5.2-6.7-8.7-12.3-8.7h-0.7v-6.8h0.7c8.4,0,15.8,5.2,18.6,13
			l0,0L82,57c0,0,0,0,0,0l0.2,0.7l0,0c0.5,1.8,0.8,3.6,0.8,5.5V63.9z M77.5,62.5h4c-0.1-1.5-0.3-3-0.7-4.4l-3.9,1
			C77.3,60.2,77.5,61.3,77.5,62.5z M63.9,48.8c5.6,0.3,10.5,3.8,12.6,9l3.9-1c-2.6-7-9.1-11.7-16.6-12V48.8z"/>
	</g>
	<g>
		<path class="st2" d="M63.2,83c-1.2,0-2.5-0.1-3.8-0.4l0,0l-0.7-0.2c0,0,0,0,0,0L58,82.3v0C49.3,80,43.3,72.2,43.3,63.2
			c0-10.9,8.9-19.8,19.8-19.8h0.7v6.8h-0.7c-0.3,0-0.5,0-0.8,0l-0.1-1.4c0,0,0.1,0,0.1,0v-4c-9.8,0.4-17.7,8.5-17.7,18.4
			c0,8.3,5.5,15.5,13.5,17.7l0.8-4.6l1.4,0.2l-0.8,4.7c4.6,0.9,9,0.1,12.8-2.1l-2.8-3.7l1.1-0.9l3.8,4.9l-0.6,0.4
			C70.6,81.9,66.9,83,63.2,83z"/>
	</g>
	<g>
		<path class="st3" d="M49.5,63.2"/>
	</g>
	<g>
		<path class="st2" d="M63.2,77.5c-1.6,0-3-0.3-4.3-0.6l0.3-1.4c1.4,0.3,2.7,0.5,4,0.5c7.2,0,13-5.8,13-13v-0.7H83v0.7
			c0,2.2-0.4,4.3-1.1,6.4l-0.2,0.7l-5.1-1.9C74.5,73.7,69.2,77.5,63.2,77.5z M77,67.1l3.8,1.4c0.5-1.5,0.7-3.1,0.8-4.6h-4
			C77.5,65,77.3,66,77,67.1z"/>
	</g>
	<g>
		<path class="st2" d="M63.2,77.5v-1.4c7.2,0,13-5.8,13-13c0-7.2-5.8-13-13-13v-1.4c7.9,0,14.4,6.5,14.4,14.4
			C77.5,71.1,71.1,77.5,63.2,77.5z"/>
	</g>
</g>
</svg>
