<svg xmlns="http://www.w3.org/2000/svg" width="176.27mm" height="62.91mm" viewBox="0 0 499.67 178.33"><defs><style>.a{fill:#4661ab;}.b,.d{fill:none;}.c{fill:#fff;}.d{stroke:#fff;stroke-miterlimit:10;stroke-width:0.5px;}</style></defs><title>iris</title><path class="a" d="M198.28,127.76c0,18.6-17.58,33.68-39.26,33.68H58.6c-21.69,0-39.27-15.08-39.27-33.68V52.68C19.33,34.07,36.91,19,58.6,19H159c21.68,0,39.26,15.08,39.26,33.69Z"/><path class="b" d="M107.76,29.34a60.82,60.82,0,1,0,60.82,60.82A60.82,60.82,0,0,0,107.76,29.34Zm31.76,105,0,0,0,0a53.91,53.91,0,0,1-41.95,9.3v0a54,54,0,0,1-14.46-5l0,0,0,0a54.5,54.5,0,0,1-14.94-11.2l0,0,0,0a54.54,54.54,0,0,1-4.73-5.75l0,0,0,0A54.06,54.06,0,0,1,54,98.42h0a53.26,53.26,0,0,1,9.43-39.8l0,0,0,0A54.67,54.67,0,0,1,75.49,46.39l0,0,0,0a54.21,54.21,0,0,1,14.73-7.72v0a54.19,54.19,0,0,1,61.85,20l0,0,0,0a54.1,54.1,0,0,1,8,16.43h0a54,54,0,0,1-8.77,47.75l.05,0-.05,0A54.69,54.69,0,0,1,139.52,134.31Z"/><path class="c" d="M107.76,27a63.16,63.16,0,1,0,63.16,63.16A63.16,63.16,0,0,0,107.76,27Zm0,124a60.82,60.82,0,1,1,60.82-60.82A60.82,60.82,0,0,1,107.76,151Z"/><path class="c" d="M95.45,55.68,89.32,38.23,90,38a55,55,0,0,1,17.76-3h.7V53.54h-.7a36.51,36.51,0,0,0-11.65,1.92ZM91.12,39.11l5.2,14.81a37.93,37.93,0,0,1,10.74-1.78V36.43A53.66,53.66,0,0,0,91.12,39.11Z"/><path class="c" d="M71.13,90.16h-1.4A38,38,0,0,1,71.3,79.37l.66.2.2-.67-.2.67.2-.67.66.2-.18.67A36.59,36.59,0,0,0,71.13,90.16Z"/><path class="c" d="M53.42,99.22l-.11-.69a53.93,53.93,0,0,1,9.17-39.77h0l.39-.55,0,0,.4-.57h0a55.31,55.31,0,0,1,11.78-11.8l.57-.42,10.79,15-.55.41a39,39,0,0,0-8.39,8.7l-.57-.4-.43.55L63.59,59.63A53.32,53.32,0,0,0,54,90.16a51.63,51.63,0,0,0,.58,7.46L70.79,95.1,71,96.48Zm11-40.74,12.37,9.65a40.65,40.65,0,0,1,7.72-8L75.34,47.38A53.91,53.91,0,0,0,64.41,58.48Z"/><path class="c" d="M85.31,61.27l-10.79-15,.56-.41A54.94,54.94,0,0,1,90,38l.66-.22,6.13,17.46-.67.23a36.46,36.46,0,0,0-10.22,5.38ZM76.47,46.54l9.15,12.75A37.81,37.81,0,0,1,95,54.37l-5.2-14.81A53.53,53.53,0,0,0,76.47,46.54Z"/><path class="c" d="M143,80.34l-.2-.66a36.32,36.32,0,0,0-5.1-10.51l-.39-.56,14.88-11,.41.58a54.75,54.75,0,0,1,8.06,16.64l.2.69Zm-3.76-11.41a37.75,37.75,0,0,1,4.71,9.7l15.16-4.07a53.43,53.43,0,0,0-7.24-14.95Z"/><path class="c" d="M162.89,90.86H144.38v-.7a36.57,36.57,0,0,0-1.54-10.48l-.21-.69,17.87-4.8.19.66a55.2,55.2,0,0,1,2.2,15.31Zm-17.12-1.4h15.71a53.67,53.67,0,0,0-2-13.55L144.38,80A38.06,38.06,0,0,1,145.78,89.46Z"/><path class="c" d="M107.75,145.3a55.44,55.44,0,0,1-10.32-1l-.67-.13,3-18.25.71.14a36.6,36.6,0,0,0,28.2-5.9l.55-.38,11.24,14.68-.58.42A54.71,54.71,0,0,1,107.75,145.3ZM98.37,143a53.18,53.18,0,0,0,40.14-8.89L129,121.7a37.94,37.94,0,0,1-28,5.88Z"/><path class="c" d="M139.37,135.28l-11.26-14.69.6-.42a36.68,36.68,0,0,0,8.19-7.91l.42-.55,14.91,10.95-.42.57a55.38,55.38,0,0,1-11.88,11.66Zm-9.25-14.39,9.54,12.45a53.93,53.93,0,0,0,10.6-10.4l-12.65-9.29A38.17,38.17,0,0,1,130.12,120.89Z"/><path class="c" d="M150.84,123.37l-14.36-10.54.43-.57a36.42,36.42,0,0,0,5.31-9.81v0a36.44,36.44,0,0,0,2.15-12.25v-.7h17.82v1.4H145.78a38.27,38.27,0,0,1-7.33,21.67l13.21,9.7Z"/><path class="c" d="M63.29,122.69l-.42-.58a55.14,55.14,0,0,1-9.55-23.58l-.11-.69L71.49,95l.1.7a36.65,36.65,0,0,0,6.16,15.43l.39.56ZM54.81,99a53.75,53.75,0,0,0,8.79,21.71l12.61-9.35a38.06,38.06,0,0,1-5.89-14.77Z"/><path class="c" d="M98.14,144.44l-.7-.13a54.74,54.74,0,0,1-14.06-4.73h0l-.59-.3-.06,0-.61-.31h0a55.16,55.16,0,0,1-14.47-11l-.46-.5,13.06-13.15.5.54a36.3,36.3,0,0,0,19.77,11.23l.67.13Zm-14.05-6.07A53.34,53.34,0,0,0,97,142.79l2.59-15.48a37.47,37.47,0,0,1-7.51-2.5Zm-14.94-10.9a53.62,53.62,0,0,0,13.69,10.26l8-13.53a38.09,38.09,0,0,1-10.59-7.88Z"/><path class="c" d="M116.86,63.54l-.68-.21A28.12,28.12,0,0,0,107.75,62h-.7V52.14h.7A38.06,38.06,0,0,1,119,53.84l.66.21Zm-8.4-2.9a29.54,29.54,0,0,1,7.46,1.14L118,55a36.54,36.54,0,0,0-9.5-1.43Z"/><path class="c" d="M90.26,68.17l-5.77-8,.55-.41a37.75,37.75,0,0,1,10.62-5.58l.66-.22,3.28,9.34-.68.23a28,28,0,0,0-8.08,4.26Zm-3.83-7.74,4.13,5.76a29.39,29.39,0,0,1,7.23-3.81l-2.35-6.69A36.44,36.44,0,0,0,86.44,60.43Z"/><path class="c" d="M79.64,90.86H69.73v-.7A38,38,0,0,1,71.3,79.37l.21-.71L80.88,82l-.18.63a28.1,28.1,0,0,0-1.06,7.57Zm-8.5-1.4h7.1a29.63,29.63,0,0,1,.94-6.61l-6.73-2.37A36.65,36.65,0,0,0,71.14,89.46Z"/><path class="c" d="M134.83,82.54l-.2-.65a27.92,27.92,0,0,0-3.73-7.68l-.39-.56,8-5.87.41.59a37.7,37.7,0,0,1,5.29,10.92l.2.69ZM132.43,74a29.21,29.21,0,0,1,3.33,6.86L142.62,79a36.38,36.38,0,0,0-4.48-9.23Z"/><path class="c" d="M124.54,67.62l-.58-.41a28,28,0,0,0-7.78-3.88l-.66-.21,2.84-9.5.68.21a37.92,37.92,0,0,1,10.6,5.26l.57.4Zm-7.28-5.41a29.45,29.45,0,0,1,6.93,3.46l4.06-5.82a36.46,36.46,0,0,0-9-4.45Z"/><path class="c" d="M131.31,74.81l-.41-.6a28.13,28.13,0,0,0-6.93-7l-.57-.4,5.66-8.12.58.41a38.08,38.08,0,0,1,9.25,9.27l.39.56Zm-6-8.33a29.57,29.57,0,0,1,6.3,6.35l5.7-4.21a36.62,36.62,0,0,0-7.94-8Z"/><path class="c" d="M98.26,63.7,95,54.36l.68-.23a37.89,37.89,0,0,1,12.09-2h.7V62h-.7a28,28,0,0,0-8.84,1.44Zm-1.48-8.46,2.35,6.7a29.46,29.46,0,0,1,7.92-1.29v-7.1A36.56,36.56,0,0,0,96.78,55.24Z"/><path class="c" d="M143.3,103.6,134,100.16l.23-.65a28,28,0,0,0,1.62-9.34v-.7h9.91v.7a37.87,37.87,0,0,1-2.24,12.76Zm-7.51-4.28,6.66,2.46a36.41,36.41,0,0,0,1.92-10.92h-7.1A29.47,29.47,0,0,1,135.79,99.32Z"/><path class="c" d="M129,121.7l-6-7.87.61-.42a28.19,28.19,0,0,0,6.5-6.18l.42-.55,8,5.86-.43.57a38.24,38.24,0,0,1-8.5,8.21Zm-4-7.55,4.31,5.63a36.81,36.81,0,0,0,7.2-7l-5.72-4.2A29.69,29.69,0,0,1,125,114.15Z"/><path class="c" d="M137.61,113.66l-8-5.86.44-.57a27.93,27.93,0,0,0,4.19-7.72l.24-.67,9.29,3.44-.23.65A37.81,37.81,0,0,1,138,113.11Zm-6-6.15,5.72,4.2a36.47,36.47,0,0,0,4.66-8.6l-6.65-2.46A29.45,29.45,0,0,1,131.6,107.51Z"/><path class="c" d="M145.78,90.86h-9.91v-.7a28,28,0,0,0-1.24-8.27l-.21-.7L144,78.63l.2.65a37.91,37.91,0,0,1,1.6,10.88Zm-8.51-1.4h7.1A36.57,36.57,0,0,0,143,80.34l-6.85,1.84A29.6,29.6,0,0,1,137.27,89.46Z"/><path class="c" d="M77,112.51l-.41-.59a38.06,38.06,0,0,1-6.39-16l-.11-.69,9.78-1.52.1.7a27.78,27.78,0,0,0,4.59,11.69l.38.56ZM71.7,96.37a36.72,36.72,0,0,0,5.63,14.15L83,106.3a29.56,29.56,0,0,1-4.33-11Z"/><rect class="c" x="70.43" y="89.46" width="8.5" height="1.4"/><rect class="c" x="70.85" y="94.43" width="8.5" height="1.4" transform="matrix(0.99, -0.15, 0.15, 0.99, -13.73, 12.67)"/><rect class="c" x="76.34" y="108.29" width="8.5" height="1.41" transform="translate(-49.05 69.4) rotate(-36.54)"/><path class="c" d="M101,127.58l-.71-.14a37.72,37.72,0,0,1-20.54-11.66l-.45-.49,6.45-6.5,1,1-5.5,5.55a36.3,36.3,0,0,0,18.61,10.59l1.28-7.68,1.38.23Z"/><path class="c" d="M107.75,128.19a38.42,38.42,0,0,1-7.51-.75l-.67-.13,1.64-9.79.72.15a28.05,28.05,0,0,0,21.63-4.25l.55-.37,6,7.85-.6.42A37.8,37.8,0,0,1,107.75,128.19Zm-6.57-2a36.53,36.53,0,0,0,26.93-5.61l-4.32-5.64a29.43,29.43,0,0,1-21.44,4.24Z"/><path class="c" d="M123.8,114.95l-6.32-8.25,1.11-.86L124.1,113a28.26,28.26,0,0,0,5.51-5.24l-6.68-4.91h0l-.52-.4,0,0-.57-.48a18.29,18.29,0,0,0,3.31-5.84l.23-.68,10.41,3.85-.23.65a29.32,29.32,0,0,1-4,7.54h0l-.41.54,0,0h0l0,0-.39.51h0a29.59,29.59,0,0,1-6.4,6Zm0-13.17,6.67,4.9a28,28,0,0,0,3.54-6.52l-7.77-2.88A19.62,19.62,0,0,1,123.8,101.78Z"/><path class="c" d="M107.75,119.68a30,30,0,0,1-6.11-.64l-.66-.14,1.84-11,.73.17a18.14,18.14,0,0,0,14.11-2.4l.54-.34,6.76,8.82-.61.42A29.38,29.38,0,0,1,107.75,119.68Zm-5.16-1.89a28,28,0,0,0,20.35-4l-5.08-6.62a19.49,19.49,0,0,1-13.9,2.41Z"/><path class="c" d="M89.33,90.86H78.23v-.7a29.44,29.44,0,0,1,.94-7.31h0l.38-1.35h0A29.69,29.69,0,0,1,89.45,67h0l.54-.41h0l.57-.44h0a29.39,29.39,0,0,1,7.23-3.81h0l.68-.23h0l.65-.22h0a29.4,29.4,0,0,1,8.62-1.3h.7v11.1h-.7A18.4,18.4,0,0,0,89.33,90.16Zm-9.69-1.4h8.3a19.88,19.88,0,0,1,.41-3.39l-7.85-2.76A28.2,28.2,0,0,0,79.65,89.46ZM80.88,82l7.81,2.74a19.92,19.92,0,0,1,6.4-9.8l-4.83-6.72A28.28,28.28,0,0,0,80.88,82ZM91.39,67.33,96.21,74a19.71,19.71,0,0,1,4.8-2.53l-2.74-7.81A28,28,0,0,0,91.39,67.33Zm8.21-4.07,2.74,7.82a19.85,19.85,0,0,1,4.71-.73v-8.3A28,28,0,0,0,99.6,63.27Z"/><path class="c" d="M102.36,119.19l-.71-.15a29.68,29.68,0,0,1-16.17-9.53l1.06-.92a28.27,28.27,0,0,0,14.69,8.92l1.37-8.22A19.72,19.72,0,0,1,87.94,90.86h-9v-1.4h10.4v.7a18.33,18.33,0,0,0,14.22,17.92l.64.15Z"/><path class="c" d="M83.83,107.46l-.41-.6A29.55,29.55,0,0,1,78.6,94.59l-.11-.69,10-1.56.22,1.39L80.1,95.07a27.7,27.7,0,0,0,4.07,10.39l7.2-5.34.84,1.13Z"/><path class="c" d="M125.46,85.06l-.21-.63a18.6,18.6,0,0,0-6.83-9.28,18.28,18.28,0,0,0-10.67-3.41h-.7V60.64h.7a29.51,29.51,0,0,1,8.16,1.15h0l.66.2h0l.66.21h0a29.45,29.45,0,0,1,6.93,3.46h0l.58.41h0l.55.39h0a29.57,29.57,0,0,1,6.3,6.35h0l.39.57,0,0,.39.56h0a29.17,29.17,0,0,1,3.54,7.5l.21.69Zm-.85-5.31a19.77,19.77,0,0,1,1.76,3.61l8-2.16a28,28,0,0,0-3.11-6.39Zm-4.81-5.33a20,20,0,0,1,4,4.16l6.68-4.93a28.16,28.16,0,0,0-6-6Zm-5.32-2.91a19.68,19.68,0,0,1,4.17,2.09l4.74-6.79a28,28,0,0,0-6.53-3.26Zm-6-1.16a19.76,19.76,0,0,1,4.68.73l2.38-7.95a28.2,28.2,0,0,0-7.06-1.08Z"/><path class="c" d="M135.33,100.65l-10.4-3.85.22-.65a18.45,18.45,0,0,0,1-6v-.7h11.1v.7a29.43,29.43,0,0,1-1.7,9.81ZM126.7,96l7.77,2.88a28.18,28.18,0,0,0,1.39-8h-8.3A19.74,19.74,0,0,1,126.7,96Z"/><path class="c" d="M137.27,90.86h-11.1v-.7a18.43,18.43,0,0,0-.92-5.74l-.23-.7,10.75-2.89.2.65a29.49,29.49,0,0,1,1.3,8.68Zm-9.71-1.4h8.3a28.05,28.05,0,0,0-1-6.92l-8,2.15A19.84,19.84,0,0,1,127.57,89.46Z"/><path class="c" d="M127.58,90.86h-6.84v-.7a13,13,0,0,0-13-13h-.7V70.34h.7a19.78,19.78,0,0,1,18.62,13h0l.2.63h0l.23.7h0a19.76,19.76,0,0,1,.77,5.46Zm-5.45-1.4h4a18.45,18.45,0,0,0-.71-4.4l-3.89,1A14.27,14.27,0,0,1,122.12,89.46ZM108.46,75.79a14.41,14.41,0,0,1,12.64,9l3.91-1a18.37,18.37,0,0,0-16.55-12Z"/><path class="c" d="M107.75,110a19.74,19.74,0,0,1-3.79-.38h0l-.7-.16h0l-.64-.15h0a19.82,19.82,0,0,1,5.16-39h.7v6.84h-.7l-.75,0-.08-1.4h.13v-4a18.41,18.41,0,0,0-4.23,36.14l.77-4.62,1.38.23-.79,4.72A18.06,18.06,0,0,0,117,106.08l-2.85-3.72,1.11-.85,3.79,4.94-.64.41A19.76,19.76,0,0,1,107.75,110Z"/><path class="d" d="M94.07,90.16"/><path class="c" d="M107.75,104.55a19.44,19.44,0,0,1-4.32-.57l.31-1.37a17.71,17.71,0,0,0,4,.54,13,13,0,0,0,13-13v-.7h6.84v.7a19.75,19.75,0,0,1-1.09,6.44l-.23.68-5.1-1.89A14.41,14.41,0,0,1,107.75,104.55ZM121.6,94.07l3.78,1.4a18.44,18.44,0,0,0,.78-4.6h-4A14.53,14.53,0,0,1,121.6,94.07Z"/><path class="c" d="M107.75,104.55v-1.41a13,13,0,1,0,0-26v-1.4a14.39,14.39,0,0,1,0,28.77Z"/><path class="a" d="M238.13,18.05V110H214.22V18.05Z"/><path class="a" d="M262.32,91.26V110H245V91.26Z"/><path class="a" d="M269.19,18.05h16.92q16.92,0,22.91,1.31A15.78,15.78,0,0,1,318.8,26q3.78,5.37,3.78,17.12,0,10.73-2.67,14.42T309.4,62q7.1,1.76,9.54,4.71a14.08,14.08,0,0,1,3,5.42q.6,2.47.6,13.6V110h-22.2V79.44q0-7.38-1.16-9.14t-6.11-1.76V110H269.19ZM293.1,33.79V54.23q4,0,5.65-1.11t1.62-7.18V40.88q0-4.37-1.56-5.74T293.1,33.79Z"/><path class="a" d="M346.43,91.26V110H329.11V91.26Z"/><path class="a" d="M377.21,18.05V110H353.3V18.05Z"/><path class="a" d="M401.4,91.26V110H384.08V91.26Z"/><path class="a" d="M458.93,45.88h-22.2V39.07q0-4.77-.85-6.08A3.13,3.13,0,0,0,433,31.68a3.61,3.61,0,0,0-3.27,1.76,10.22,10.22,0,0,0-1.11,5.34,15.14,15.14,0,0,0,1.25,6.93q1.19,2.33,6.76,5.62,16,9.48,20.11,15.55t4.14,19.59q0,9.83-2.3,14.48t-8.89,7.81a35.16,35.16,0,0,1-15.33,3.15q-9.6,0-16.38-3.63T409.12,99q-2.1-5.62-2.1-16v-6h22.21V88.25q0,5.17.94,6.64a3.62,3.62,0,0,0,3.32,1.48A3.89,3.89,0,0,0,437,94.49a10.7,10.7,0,0,0,1.16-5.57q0-8.12-2.21-10.62T424.8,70A109.9,109.9,0,0,1,413,61.39a20.07,20.07,0,0,1-4.8-7.38,32.48,32.48,0,0,1-1.9-12q0-10.56,2.7-15.45a18.15,18.15,0,0,1,8.72-7.64,34.77,34.77,0,0,1,14.54-2.75,37.88,37.88,0,0,1,15.87,3q6.56,3,8.69,7.58t2.13,15.53Z"/><path class="a" d="M219.23,115.23v20.94h-5.44V115.23Z"/><path class="a" d="M238.22,115.23v20.94h-4.76V122l-1.89,14.14h-3.37l-2-13.81v13.81h-4.76V115.23h7q.31,1.89.65,4.45l.77,5.33,1.25-9.78Z"/><path class="a" d="M240.4,115.23h5.48a12.9,12.9,0,0,1,3.42.35,3.82,3.82,0,0,1,1.8,1,3.47,3.47,0,0,1,.81,1.6,14.3,14.3,0,0,1,.21,2.9v1.82a7.59,7.59,0,0,1-.41,2.92,2.83,2.83,0,0,1-1.52,1.41,7.18,7.18,0,0,1-2.89.49h-1.46v8.43H240.4Zm5.44,3.58v5.33h.4a1.26,1.26,0,0,0,1-.37,2.72,2.72,0,0,0,.29-1.53v-1.72a2,2,0,0,0-.34-1.4A2.11,2.11,0,0,0,245.85,118.81Z"/><path class="a" d="M253.7,115.23h9.08v4.19h-3.63v4h3.4v4h-3.4V132h4v4.19H253.7Z"/><path class="a" d="M264.7,115.23h3.85a29.41,29.41,0,0,1,5.22.3A3.59,3.59,0,0,1,276,117a6.9,6.9,0,0,1,.86,3.9,6.09,6.09,0,0,1-.61,3.29,3.19,3.19,0,0,1-2.39,1,4.09,4.09,0,0,1,2.17,1.07,3.2,3.2,0,0,1,.69,1.23,19.43,19.43,0,0,1,.14,3.1v5.52H271.8v-7a4.79,4.79,0,0,0-.27-2.08q-.26-.4-1.39-.4v9.44H264.7Zm5.44,3.58v4.66a2.4,2.4,0,0,0,1.29-.25q.37-.25.37-1.64v-1.15a1.74,1.74,0,0,0-.36-1.31A2,2,0,0,0,270.15,118.81Z"/><path class="a" d="M284.41,115.23v20.94H279V115.23Z"/><path class="a" d="M296,115.23l3.11,20.94h-5.56l-.29-3.76h-1.95l-.33,3.76h-5.63l2.78-20.94Zm-2.89,13.46q-.41-3.56-.83-8.79-.83,6-1,8.79Z"/><path class="a" d="M305.49,115.23V132h3.31v4.19H300V115.23Z"/><path class="a" d="M314.79,115.23h3.85a29.42,29.42,0,0,1,5.22.3,3.59,3.59,0,0,1,2.22,1.52,6.89,6.89,0,0,1,.86,3.9,6.1,6.1,0,0,1-.61,3.29,3.19,3.19,0,0,1-2.39,1,4.08,4.08,0,0,1,2.17,1.07,3.22,3.22,0,0,1,.69,1.23,19.62,19.62,0,0,1,.14,3.1v5.52h-5.06v-7a4.8,4.8,0,0,0-.27-2.08q-.26-.4-1.39-.4v9.44h-5.44Zm5.44,3.58v4.66a2.39,2.39,0,0,0,1.29-.25q.37-.25.37-1.64v-1.15a1.74,1.74,0,0,0-.36-1.31A2,2,0,0,0,320.23,118.81Z"/><path class="a" d="M329.05,115.23h9.08v4.19H334.5v4h3.4v4h-3.4V132h4v4.19h-9.44Z"/><path class="a" d="M352.55,122.94h-5.45V121a9.45,9.45,0,0,0-.15-2.25.69.69,0,0,0-.74-.45.68.68,0,0,0-.68.39,6.29,6.29,0,0,0-.18,2v10a6,6,0,0,0,.18,1.85.7.7,0,0,0,.72.45.8.8,0,0,0,.81-.5,5.88,5.88,0,0,0,.21-2v-2.48h-1.1v-3.18h6.38v11.24h-3.42l-.5-1.5a3.8,3.8,0,0,1-1.4,1.46,4,4,0,0,1-2,.49,5.2,5.2,0,0,1-2.57-.67,4.9,4.9,0,0,1-1.82-1.65,5.22,5.22,0,0,1-.78-2.06,24.81,24.81,0,0,1-.15-3.24v-6.22a20.88,20.88,0,0,1,.32-4.36,4.46,4.46,0,0,1,1.86-2.49,6.5,6.5,0,0,1,4-1.13,7.39,7.39,0,0,1,4,1,4.64,4.64,0,0,1,2.06,2.33,12.38,12.38,0,0,1,.48,3.93Z"/><path class="a" d="M360.11,115.23v20.94h-5.44V115.23Z"/><path class="a" d="M373.83,121.57h-5.06V120a3.07,3.07,0,0,0-.19-1.38.72.72,0,0,0-.65-.3.82.82,0,0,0-.74.4,2.34,2.34,0,0,0-.25,1.22,3.46,3.46,0,0,0,.28,1.58,4.12,4.12,0,0,0,1.54,1.28q3.64,2.16,4.58,3.54a8.12,8.12,0,0,1,.94,4.46,7.84,7.84,0,0,1-.52,3.3,4.11,4.11,0,0,1-2,1.78,8,8,0,0,1-3.49.72,7.8,7.8,0,0,1-3.73-.83,4.07,4.07,0,0,1-2-2.11A10.8,10.8,0,0,1,362,130v-1.37h5.06v2.55a3.37,3.37,0,0,0,.21,1.51.83.83,0,0,0,.76.34.89.89,0,0,0,.81-.43,2.44,2.44,0,0,0,.26-1.27,3.92,3.92,0,0,0-.5-2.42,16.16,16.16,0,0,0-2.55-1.9,25.23,25.23,0,0,1-2.69-2,4.59,4.59,0,0,1-1.09-1.68,7.41,7.41,0,0,1-.43-2.74,7.6,7.6,0,0,1,.62-3.52,4.13,4.13,0,0,1,2-1.74,7.92,7.92,0,0,1,3.31-.63,8.62,8.62,0,0,1,3.61.69,3.79,3.79,0,0,1,2,1.73,9.14,9.14,0,0,1,.49,3.54Z"/><path class="a" d="M387,115.23v4.19h-3.23v16.75h-5.45V119.42h-3.22v-4.19Z"/><path class="a" d="M388.19,115.23H392a29.4,29.4,0,0,1,5.22.3,3.59,3.59,0,0,1,2.22,1.52,6.91,6.91,0,0,1,.86,3.9,6.11,6.11,0,0,1-.61,3.29,3.19,3.19,0,0,1-2.39,1,4.08,4.08,0,0,1,2.17,1.07,3.2,3.2,0,0,1,.69,1.23,19.67,19.67,0,0,1,.14,3.1v5.52h-5.06v-7a4.78,4.78,0,0,0-.27-2.08c-.18-.27-.64-.4-1.39-.4v9.44h-5.44Zm5.44,3.58v4.66a2.38,2.38,0,0,0,1.29-.25c.25-.17.37-.71.37-1.64v-1.15a1.74,1.74,0,0,0-.36-1.31A2,2,0,0,0,393.64,118.81Z"/><path class="a" d="M411.87,115.23,415,136.17h-5.56l-.29-3.76h-1.95l-.33,3.76h-5.63L404,115.23ZM409,128.69q-.42-3.56-.83-8.79-.83,6-1,8.79Z"/><path class="a" d="M425.41,115.23v4.19h-3.23v16.75h-5.45V119.42h-3.22v-4.19Z"/><path class="a" d="M432.1,115.23v20.94h-5.44V115.23Z"/><path class="a" d="M446.73,127.49q0,3.15-.15,4.47a5,5,0,0,1-3,4.07,7.67,7.67,0,0,1-3.1.58,7.9,7.9,0,0,1-3-.55,5,5,0,0,1-3.12-4,44.57,44.57,0,0,1-.15-4.53v-3.58q0-3.15.15-4.47a5,5,0,0,1,3-4.07,7.69,7.69,0,0,1,3.11-.58,7.86,7.86,0,0,1,3,.55,5,5,0,0,1,3.12,4,44.19,44.19,0,0,1,.16,4.53Zm-5.45-6.88a6.46,6.46,0,0,0-.16-1.87.64.64,0,0,0-.67-.41.74.74,0,0,0-.65.33,4.67,4.67,0,0,0-.23,1.95v9.78a9.54,9.54,0,0,0,.15,2.25.65.65,0,0,0,.69.43.67.67,0,0,0,.71-.49,10.37,10.37,0,0,0,.16-2.34Z"/><path class="a" d="M460.91,115.23v20.94h-4.77l-2.83-9.52v9.52h-4.55V115.23h4.55l3.05,9.43v-9.43Z"/><path class="a" d="M219.72,138.43v23h-6v-23Z"/><path class="a" d="M235.44,138.43v23h-5.23l-3.1-10.43v10.43h-5v-23h5l3.35,10.33V138.43Z"/><path class="a" d="M237.83,138.43h10.11V143H243.8v4.35h3.69v4.37H243.8v9.64h-6Z"/><path class="a" d="M263,151.86q0,3.46-.16,4.9a5.48,5.48,0,0,1-3.34,4.46,8.43,8.43,0,0,1-3.4.64,8.66,8.66,0,0,1-3.31-.6,5.52,5.52,0,0,1-3.42-4.43,48.37,48.37,0,0,1-.17-5v-3.93q0-3.46.16-4.9a5.49,5.49,0,0,1,3.34-4.46,8.44,8.44,0,0,1,3.4-.64,8.65,8.65,0,0,1,3.31.6,5.51,5.51,0,0,1,3.42,4.43,48.62,48.62,0,0,1,.17,5Zm-6-7.54a7.11,7.11,0,0,0-.18-2,.71.71,0,0,0-.73-.45.81.81,0,0,0-.72.36,5.12,5.12,0,0,0-.25,2.13V155a10.62,10.62,0,0,0,.16,2.47.71.71,0,0,0,.76.47.73.73,0,0,0,.78-.54,11.32,11.32,0,0,0,.17-2.57Z"/><path class="a" d="M265.25,138.43h4.22a32.37,32.37,0,0,1,5.72.33,3.94,3.94,0,0,1,2.44,1.67,7.56,7.56,0,0,1,.94,4.27,6.68,6.68,0,0,1-.67,3.6,3.5,3.5,0,0,1-2.62,1.11,4.48,4.48,0,0,1,2.38,1.18,3.52,3.52,0,0,1,.76,1.35,21.4,21.4,0,0,1,.15,3.4v6.05H273v-7.63a5.27,5.27,0,0,0-.29-2.28q-.29-.44-1.52-.44v10.35h-6Zm6,3.93v5.1a2.63,2.63,0,0,0,1.41-.28q.4-.28.4-1.79v-1.26a1.91,1.91,0,0,0-.39-1.43A2.21,2.21,0,0,0,271.22,142.35Z"/><path class="a" d="M299.3,138.43v23h-5.22V145.88L292,161.38h-3.7l-2.19-15.14v15.14h-5.22v-23h7.72q.34,2.07.71,4.88l.85,5.84,1.37-10.72Z"/><path class="a" d="M312,138.43l3.41,23h-6.1l-.32-4.12h-2.14l-.36,4.13h-6.17l3-23Zm-3.16,14.76q-.45-3.9-.91-9.64-.91,6.59-1.14,9.64Z"/><path class="a" d="M326.86,138.43V143h-3.54v18.36h-6V143h-3.53v-4.59Z"/><path class="a" d="M334.19,138.43v23h-6v-23Z"/><path class="a" d="M350.22,151.86q0,3.46-.16,4.9a5.49,5.49,0,0,1-3.34,4.46,8.43,8.43,0,0,1-3.4.64,8.66,8.66,0,0,1-3.31-.6,5.52,5.52,0,0,1-3.42-4.43,48.52,48.52,0,0,1-.17-5v-3.93q0-3.46.16-4.9a5.48,5.48,0,0,1,3.34-4.46,8.44,8.44,0,0,1,3.4-.64,8.67,8.67,0,0,1,3.31.6,5.51,5.51,0,0,1,3.42,4.43,48.5,48.5,0,0,1,.17,5Zm-6-7.54a7.16,7.16,0,0,0-.18-2,.71.71,0,0,0-.73-.45.82.82,0,0,0-.72.36,5.15,5.15,0,0,0-.25,2.13V155a10.48,10.48,0,0,0,.16,2.47.71.71,0,0,0,.76.47.73.73,0,0,0,.78-.54,11.22,11.22,0,0,0,.17-2.57Z"/><path class="a" d="M365.77,138.43v23h-5.23l-3.11-10.43v10.43h-5v-23h5l3.35,10.33V138.43Z"/><path class="a" d="M385.94,145.37h-5.54v-1.7a3.3,3.3,0,0,0-.22-1.52.78.78,0,0,0-.71-.33.9.9,0,0,0-.82.44,2.55,2.55,0,0,0-.28,1.33,3.76,3.76,0,0,0,.31,1.73,4.53,4.53,0,0,0,1.69,1.4q4,2.36,5,3.88a8.92,8.92,0,0,1,1,4.89,8.57,8.57,0,0,1-.57,3.62,4.5,4.5,0,0,1-2.22,1.95,8.76,8.76,0,0,1-3.83.79,8.56,8.56,0,0,1-4.09-.91,4.46,4.46,0,0,1-2.22-2.31,11.93,11.93,0,0,1-.52-4v-1.5h5.54v2.79a3.65,3.65,0,0,0,.24,1.66.9.9,0,0,0,.83.37,1,1,0,0,0,.89-.47,2.7,2.7,0,0,0,.29-1.39,4.32,4.32,0,0,0-.55-2.65,17.72,17.72,0,0,0-2.79-2.08,27.57,27.57,0,0,1-3-2.14,5,5,0,0,1-1.2-1.84,8.12,8.12,0,0,1-.47-3,8.35,8.35,0,0,1,.67-3.86,4.52,4.52,0,0,1,2.18-1.91,8.67,8.67,0,0,1,3.63-.69,9.46,9.46,0,0,1,4,.75,4.14,4.14,0,0,1,2.17,1.89,10,10,0,0,1,.53,3.88Z"/><path class="a" d="M401,138.43l-4.35,14.64v8.31h-5.53v-8.31l-4.2-14.64h5.48q1.29,6.72,1.45,9,.49-3.67,1.66-9Z"/><path class="a" d="M414.68,145.37h-5.54v-1.7a3.32,3.32,0,0,0-.21-1.52.78.78,0,0,0-.71-.33.9.9,0,0,0-.81.44,2.54,2.54,0,0,0-.28,1.33,3.75,3.75,0,0,0,.31,1.73,4.5,4.5,0,0,0,1.69,1.4q4,2.36,5,3.88a8.9,8.9,0,0,1,1,4.89,8.62,8.62,0,0,1-.57,3.62,4.51,4.51,0,0,1-2.22,1.95,8.76,8.76,0,0,1-3.83.79,8.56,8.56,0,0,1-4.09-.91,4.45,4.45,0,0,1-2.22-2.31,11.88,11.88,0,0,1-.52-4v-1.5h5.54v2.79a3.7,3.7,0,0,0,.23,1.66.9.9,0,0,0,.83.37,1,1,0,0,0,.89-.47,2.66,2.66,0,0,0,.29-1.39,4.31,4.31,0,0,0-.55-2.65,17.62,17.62,0,0,0-2.79-2.08,27.14,27.14,0,0,1-2.95-2.14,5,5,0,0,1-1.2-1.84,8.1,8.1,0,0,1-.48-3,8.33,8.33,0,0,1,.67-3.86,4.54,4.54,0,0,1,2.18-1.91,8.69,8.69,0,0,1,3.63-.69,9.46,9.46,0,0,1,4,.75,4.15,4.15,0,0,1,2.17,1.89,10.06,10.06,0,0,1,.53,3.88Z"/><path class="a" d="M429.07,138.43V143h-3.54v18.36h-6V143H416v-4.59Z"/><path class="a" d="M430.43,138.43h10V143h-4v4.35h3.73v4.37H436.4v5h4.38v4.59H430.43Z"/><path class="a" d="M460.91,138.43v23H455.7V145.88l-2.08,15.49h-3.7l-2.19-15.14v15.14H442.5v-23h7.72q.34,2.07.71,4.88l.85,5.84,1.37-10.72Z"/><path class="a" d="M485.39,178.33H14.27C6.4,178.33,0,171.69,0,163.52V14.81C0,6.64,6.4,0,14.27,0H485.39c7.87,0,14.27,6.64,14.27,14.81V163.52C499.67,171.69,493.26,178.33,485.39,178.33ZM14.27,4A10.56,10.56,0,0,0,4,14.81V163.52a10.56,10.56,0,0,0,10.27,10.81H485.39a10.56,10.56,0,0,0,10.27-10.81V14.81A10.56,10.56,0,0,0,485.39,4Z"/></svg>